<?xml version="1.0" encoding="UTF-8" standalone="no"?>
<!DOCTYPE svg PUBLIC "-//W3C//DTD SVG 20010904//EN"
              "http://www.w3.org/TR/2001/REC-SVG-20010904/DTD/svg10.dtd">

<svg xmlns="http://www.w3.org/2000/svg"
     width="269.489mm" height="64.903mm"
     viewBox="0 0 764 184">
  <path id="Selección"
        fill="none" stroke="black" stroke-width="1"
        d="M 47.02,25.74
           C 34.95,32.49 42.95,49.06 54.91,44.11
             61.01,41.58 63.19,32.24 57.77,27.43
             54.56,24.58 50.88,24.81 47.02,25.74 Z
           M 687.00,60.00
           C 681.90,60.00 675.70,59.55 674.33,66.00
             672.49,74.71 682.47,73.54 684.69,75.02
             687.45,76.87 686.99,81.08 687.00,84.00
             687.03,98.93 684.24,121.68 696.09,132.70
             701.54,137.76 709.57,140.84 717.00,139.56
             722.02,138.69 726.53,135.86 725.34,130.00
             723.68,121.86 715.55,125.33 710.02,122.07
             703.65,118.31 703.01,111.59 703.00,105.00
             703.00,105.00 703.00,82.00 703.00,82.00
             703.04,80.22 703.00,77.86 704.02,76.31
             707.45,71.17 724.83,78.10 722.48,66.02
             720.81,57.47 709.00,61.43 705.31,58.98
             702.55,57.14 703.01,52.91 703.00,50.00
             702.99,46.39 703.53,38.03 701.83,35.15
             699.31,30.89 691.41,30.65 688.45,36.06
             686.17,40.22 687.00,54.61 687.00,60.00 Z
           M 102.00,64.00
           C 99.74,56.56 91.95,56.63 88.51,60.31
             85.73,63.30 86.01,68.20 86.00,72.00
             86.00,72.00 86.00,127.00 86.00,127.00
             86.01,129.89 85.78,133.24 87.31,135.81
             90.13,140.54 96.97,141.22 100.40,136.77
             102.29,134.33 101.99,130.92 102.00,128.00
             102.00,128.00 102.83,96.00 102.83,96.00
             103.27,91.41 102.47,87.39 104.57,83.00
             111.19,69.19 135.14,67.52 143.64,82.00
             147.74,89.00 147.00,94.32 147.00,102.00
             147.00,102.00 147.00,127.00 147.00,127.00
             147.01,132.48 147.38,138.12 154.00,139.53
             163.17,141.47 163.97,130.11 164.00,124.00
             164.00,124.00 162.83,87.00 162.83,87.00
             160.59,64.99 141.52,54.59 121.00,57.29
             111.55,58.53 109.74,61.75 102.00,64.00 Z
           M 203.00,64.00
           C 200.28,55.05 189.49,56.01 188.14,64.00
             186.16,75.72 186.98,107.39 187.00,121.00
             187.01,124.86 187.26,133.77 189.60,136.77
             193.02,141.16 200.67,140.48 202.49,134.95
             204.97,127.45 203.58,104.89 203.90,95.83
             204.09,90.55 203.55,85.65 206.70,81.01
             216.12,67.15 238.58,69.17 246.00,84.00
             249.29,90.58 247.99,108.92 248.00,117.00
             248.00,120.11 248.83,133.78 250.02,135.89
             251.08,137.77 252.90,139.07 255.00,139.53
             262.39,141.12 264.92,133.80 265.00,128.00
             265.00,128.00 265.00,97.00 265.00,97.00
             264.96,71.76 251.30,55.28 225.00,57.09
             211.89,57.99 211.08,61.83 203.00,64.00 Z
           M 318.00,57.44
           C 308.49,59.28 298.54,64.11 292.61,72.00
             287.00,79.47 284.84,88.83 284.18,98.00
             283.94,101.45 284.71,104.65 285.40,108.00
             289.24,126.77 303.51,139.77 323.00,140.00
             331.15,140.09 336.33,140.42 344.00,136.83
             357.88,130.31 366.82,117.39 367.00,102.00
             367.15,88.62 365.49,78.37 355.56,68.44
             345.16,58.04 332.14,55.62 318.00,57.44 Z
           M 475.00,104.00
           C 475.00,104.00 526.00,104.00 526.00,104.00
             528.74,103.99 532.38,104.31 534.57,102.40
             536.96,100.32 536.99,96.91 536.99,94.00
             537.01,87.02 534.80,78.89 531.04,73.00
             519.96,55.66 495.15,52.41 478.00,62.36
             455.75,75.27 452.65,109.91 470.09,127.96
             479.65,137.85 490.83,140.15 504.00,140.00
             511.06,139.91 521.50,137.23 526.94,132.61
             529.87,130.12 532.20,126.10 529.82,122.39
             525.32,115.37 515.39,123.16 510.00,124.70
             494.95,129.00 475.96,121.20 475.00,104.00 Z
           M 649.00,57.52
           C 638.12,59.02 639.40,62.20 633.96,64.55
             633.96,64.55 623.00,66.62 623.00,66.62
             615.19,69.05 610.58,74.82 607.31,82.00
             600.70,96.53 605.11,113.63 591.00,118.74
             582.48,121.82 582.47,116.04 577.67,111.48
             574.95,108.89 571.72,107.52 568.00,107.19
             545.58,105.20 544.08,138.68 566.00,139.73
             574.43,140.13 578.57,133.94 582.17,132.58
             582.17,132.58 592.00,131.49 592.00,131.49
             601.29,129.58 607.69,124.91 611.53,116.00
             615.50,106.81 614.38,95.16 619.68,86.00
             621.71,82.50 626.26,77.33 630.90,78.70
             634.01,79.62 635.29,83.60 639.04,86.58
             646.06,92.16 656.02,90.56 661.77,83.96
             664.71,80.59 664.99,78.28 664.99,74.00
             665.00,64.16 659.08,57.42 649.00,57.52 Z
           M 46.54,58.82
           C 41.44,63.02 43.00,71.94 43.00,78.00
             43.00,78.00 43.00,127.00 43.00,127.00
             43.00,129.68 42.78,133.44 44.17,135.80
             47.17,140.84 54.86,140.93 57.83,135.80
             59.22,133.41 59.00,129.72 59.00,127.00
             59.00,127.00 59.00,69.00 59.00,69.00
             58.89,60.39 55.80,55.83 46.54,58.82 Z
           M 413.00,115.00
           C 409.55,110.17 402.32,94.23 399.46,88.00
             399.46,88.00 392.42,73.00 392.42,73.00
             390.80,69.27 388.08,61.91 384.87,59.60
             380.93,56.76 373.33,57.82 373.21,65.00
             373.13,69.81 378.94,80.40 381.25,85.00
             381.25,85.00 399.84,124.00 399.84,124.00
             402.38,129.50 405.57,139.59 412.99,139.17
             419.72,138.78 422.68,129.15 425.03,124.00
             425.03,124.00 435.69,102.00 435.69,102.00
             435.69,102.00 443.86,84.00 443.86,84.00
             445.90,79.78 451.84,69.27 451.59,65.00
             451.24,58.81 444.06,56.13 439.34,59.74
             436.75,61.71 432.81,70.68 431.31,74.00
             431.31,74.00 424.29,90.00 424.29,90.00
             424.29,90.00 413.00,115.00 413.00,115.00 Z
           M 103.00,65.00
           C 103.00,65.00 103.00,66.00 103.00,66.00
             103.00,66.00 102.00,65.00 102.00,65.00
             102.00,65.00 103.00,65.00 103.00,65.00 Z
           M 647.04,67.60
           C 657.46,65.70 657.89,77.05 651.94,79.40
             644.32,82.42 637.59,73.11 647.04,67.60 Z
           M 523.00,91.00
           C 523.00,91.00 505.00,92.00 505.00,92.00
             505.00,92.00 474.00,92.00 474.00,92.00
             474.98,74.47 495.75,64.43 511.00,72.44
             518.45,76.35 521.41,83.21 523.00,91.00 Z
           M 323.00,71.30
           C 339.79,69.78 351.92,82.41 351.92,99.00
             351.92,112.92 340.68,126.78 326.00,125.68
             320.31,125.25 314.61,124.20 310.02,120.59
             298.75,111.73 296.81,92.21 305.53,81.01
             310.32,74.87 315.62,72.69 323.00,71.30 Z
           M 565.02,116.71
           C 574.78,116.37 575.54,128.00 567.98,129.92
             561.24,131.63 555.80,121.50 565.02,116.71 Z" />
</svg>
